HIERARCHY
ROOT hip
{
	OFFSET 0.000000 0.000000 0.000000 
	CHANNELS 6 Xposition Yposition Zposition Xrotation Zrotation Yrotation
	JOINT abdomen
	{
		OFFSET 0.000000 3.402643 0.000000 
		CHANNELS 3 Xrotation Zrotation Yrotation
		JOINT chest
		{
			OFFSET 0.000000 8.438565 -0.680529 
			CHANNELS 3 Xrotation Zrotation Yrotation
			JOINT neck
			{
				OFFSET 0.000000 10.207942 -0.272212 
				CHANNELS 3 Xrotation Zrotation Yrotation
				JOINT head
				{
					OFFSET 0.000000 3.130431 0.000000 
					CHANNELS 3 Xrotation Zrotation Yrotation
					End Site
					{
						OFFSET 0.000000 3.130435 0.000000 
					}
				}
			}
			JOINT lCollar
			{
				OFFSET 3.470700 6.669187 -0.816635 
				CHANNELS 3 Yrotation Zrotation Xrotation
				JOINT lShldr
				{
					OFFSET 3.198488 0.000000 0.000000 
					CHANNELS 3 Zrotation Yrotation Xrotation
					JOINT lForeArm
					{
						OFFSET 10.139888 0.000000 0.000000 
						CHANNELS 3 Yrotation Zrotation Xrotation
						JOINT lHand
						{
							OFFSET 8.370511 0.000000 0.000000 
							CHANNELS 3 Zrotation Yrotation Xrotation
							End Site
							{
								OFFSET 4.083176 0.000000 0.000000 
							}
						}
					}
				}
			}
			JOINT rCollar
			{
				OFFSET -3.470700 6.669187 -0.816635 
				CHANNELS 3 Yrotation Zrotation Xrotation
				JOINT rShldr
				{
					OFFSET -3.198488 0.000000 0.000000 
					CHANNELS 3 Zrotation Yrotation Xrotation
					JOINT rForeArm
					{
						OFFSET -10.139888 0.000000 0.000000 
						CHANNELS 3 Yrotation Zrotation Xrotation
						JOINT rHand
						{
							OFFSET -8.370511 0.000000 0.000000 
							CHANNELS 3 Zrotation Yrotation Xrotation
							End Site
							{
								OFFSET -4.083176 0.000000 0.000000 
							}
						}
					}
				}
			}
		}
	}
	JOINT lThigh
	{
		OFFSET 5.308129 -1.633274 1.361059 
		CHANNELS 3 Xrotation Zrotation Yrotation
		JOINT lShin
		{
			OFFSET -2.041588 -20.007561 0.000000 
			CHANNELS 3 Xrotation Zrotation Yrotation
			JOINT lFoot
			{
				OFFSET 0.000000 -19.190928 -1.224953 
				CHANNELS 3 Xrotation Yrotation Zrotation
				End Site
				{
					OFFSET 0.000000 -2.449906 4.627600 
				}
			}
		}
	}
	JOINT rThigh
	{
		OFFSET -5.308129 -1.633274 1.361059 
		CHANNELS 3 Xrotation Zrotation Yrotation
		JOINT rShin
		{
			OFFSET 2.041588 -20.007561 0.000000 
			CHANNELS 3 Xrotation Zrotation Yrotation
			JOINT rFoot
			{
				OFFSET 0.000000 -19.190928 -1.224953 
				CHANNELS 3 Xrotation Yrotation Zrotation
				End Site
				{
					OFFSET 0.000000 -2.449906 4.627600 
				}
			}
		}
	}
}
MOTION
Frames: 13
Frame Time: 0.033333
-0.513309 50.962337 0.805740 5.585938 13.105469 -67.812492 56.444592 -10.260833 -15.504513 -18.505859 9.248047 2.763672 51.063168 8.107644 2.471410 -69.541016 -24.999998 43.183590 2.000000 -2.000000 0.000000 -71.308594 -25.683592 -38.710938 -42.133564 -1.861862 -1.784905 -31.667210 42.787041 -68.008537 -2.000000 2.000000 0.000000 55.781250 1.005859 17.148438 111.854988 -0.848082 -3.126099 -58.192215 -68.676308 43.217438 -25.292194 19.339514 42.529217 30.197718 -4.528799 -2.730694 0.745597 1.490859 -5.343483 -29.590500 4.580760 -15.207575 11.733874 5.095747 0.877369 3.346672 -12.744153 -3.540995 
-1.079198 51.198669 1.563667 5.019531 12.597656 -67.617188 55.447075 -10.066842 -14.672977 -20.078127 9.843751 2.763672 51.063168 8.107644 2.471410 -65.439453 -26.289063 42.412106 2.000000 -2.000000 0.000000 -72.783203 -21.933596 -33.115238 -43.365139 -1.834894 -1.825598 -32.171951 41.552742 -70.844444 -2.000000 2.000000 0.000000 54.824219 -4.755859 19.716797 112.541687 -1.202279 -2.921687 -55.438225 -69.190010 41.167328 -25.467577 19.766039 42.104462 33.016529 -4.388045 -2.944127 5.685683 2.115915 -3.662949 -28.100927 3.232848 -15.521327 12.248596 5.074906 1.035378 2.508982 -11.959807 -3.197321 
-1.675149 51.356243 2.294342 4.667969 12.080078 -67.204994 54.848232 -9.811471 -14.207047 -20.976563 9.873047 2.792969 51.063168 8.107644 2.471410 -62.382809 -26.962889 42.124481 2.000000 -2.000000 0.000000 -74.697266 -19.179689 -28.841099 -44.949104 -1.790135 -1.896667 -32.221115 40.088097 -73.149498 -2.000000 2.000000 0.000000 53.896484 -9.169923 20.937500 113.245079 -1.211463 -2.931997 -53.055447 -69.657433 39.309265 -25.975992 20.717731 41.839066 36.045052 -4.241938 -3.140807 12.894772 2.324762 -2.742079 -26.323931 2.178225 -15.608637 12.438081 5.047316 1.087196 1.627667 -11.274626 -2.620955 
-2.278604 51.545311 3.018143 4.121094 11.376953 -67.021484 54.295269 -9.395007 -14.345864 -20.986328 9.521484 2.744141 51.063168 8.107644 2.471410 -61.220707 -27.138670 42.607422 2.000000 -2.000000 0.000000 -77.031250 -17.490234 -26.614264 -47.051170 -1.746512 -1.987525 -31.981859 39.356689 -74.314667 -2.000000 2.000000 0.000000 53.378906 -12.187497 20.849607 114.299721 -1.250461 -2.934252 -49.342785 -69.686142 36.942471 -25.458248 20.910940 41.750896 37.440296 -4.339588 -3.324627 18.975452 2.547146 -1.987107 -24.231815 1.094640 -15.135011 12.416855 5.078402 1.029966 0.717728 -10.948644 -2.064389 
-2.867040 51.797413 3.755610 3.574219 10.869142 -66.629013 53.570152 -8.879656 -14.613097 -20.654299 8.994142 2.714844 51.063168 8.107644 2.471410 -61.005856 -26.992188 43.384243 2.000000 -2.000000 0.000000 -79.423828 -16.542967 -25.205076 -49.343819 -1.682896 -1.902941 -31.839245 38.374447 -75.556763 -2.000000 2.000000 0.000000 53.193359 -14.140625 19.792536 115.705902 -1.299207 -2.937071 -46.307446 -69.548637 34.940151 -24.217949 20.489038 41.868416 37.599842 -4.320277 -3.322580 23.169945 2.999299 -1.366190 -22.220892 0.215893 -15.302190 12.251183 5.068555 1.034801 0.211077 -10.198051 -1.371821 
-3.417901 52.120403 4.527226 3.027344 10.351563 -66.414261 53.202076 -8.338618 -14.921957 -20.146484 8.281251 2.675781 51.063168 8.107644 2.471410 -61.513676 -26.562500 44.433594 2.000000 -2.000000 0.000000 -81.816406 -16.074221 -24.026142 -51.797215 -1.619205 -1.985172 -31.497229 37.395428 -76.737518 -2.000000 2.000000 0.000000 52.617188 -15.878905 18.913345 116.936035 -1.348518 -2.930145 -43.780613 -69.322739 33.011044 -23.349157 21.144306 41.628254 35.816708 -4.345021 -3.191613 26.406328 2.781533 -1.107908 -19.700737 -0.672416 -15.133447 10.661618 5.108408 0.896350 0.407558 -9.447598 -0.506512 
-3.908670 52.467049 5.353437 2.666016 9.980468 -66.142578 52.852890 -7.905267 -15.365728 -19.648438 7.734375 2.656250 51.063168 8.107644 2.471410 -62.255863 -26.279293 45.146484 2.000000 -2.000000 0.000000 -84.228516 -15.820313 -23.010477 -54.264118 -1.367916 -2.205182 -31.157215 36.885784 -77.381393 -2.000000 2.000000 0.000000 51.416016 -18.310549 18.378906 118.332451 -1.397264 -2.932963 -43.125103 -68.820610 32.507889 -21.738211 21.867580 41.505047 33.185596 -4.368727 -2.972567 23.795479 2.161627 -1.539020 -17.320356 -1.395151 -15.064308 9.074193 5.122455 0.960950 1.066576 -8.751663 -0.004708 
-4.316794 52.632488 6.254714 2.480469 9.648438 -66.004219 52.862801 -7.805834 -15.523348 -19.306639 7.373047 2.637972 51.063168 8.107644 2.471410 -63.232422 -26.132811 45.566410 2.000000 -2.000000 0.000000 -86.894531 -16.054686 -21.796875 -56.194592 -1.312353 -2.091081 -30.891918 35.802044 -78.323715 -2.000000 2.000000 0.000000 49.912109 -20.965191 17.614529 119.914124 -1.456324 -2.926601 -42.822311 -68.334824 31.943869 -20.341984 22.612057 41.139057 29.873171 -4.550869 -2.865000 16.712603 1.837299 -2.375970 -15.660743 -2.284115 -14.784851 8.548936 5.174439 0.393970 0.702517 -8.087059 1.112116 
-4.619754 52.640369 7.251585 2.480469 9.306642 -65.672249 53.027756 -7.901960 -15.374874 -19.306639 7.373047 2.637972 51.063168 8.107644 2.471410 -63.964844 -25.839844 45.498047 2.000000 -2.000000 0.000000 -88.730469 -16.123047 -20.071072 -57.602222 -1.276198 -2.142083 -30.490438 35.544765 -78.455612 -2.000000 2.000000 0.000000 48.613281 -23.652342 16.630857 121.151558 -1.675888 -2.851578 -41.622913 -67.672493 30.446915 -18.574362 23.106071 40.743553 25.679604 -4.704094 -2.563947 9.012668 1.952153 -3.883221 -15.544201 -3.651256 -15.487593 10.131678 5.126406 0.795432 -0.359576 -7.290436 1.745932 
-4.794983 52.569458 8.364463 2.480469 9.121095 -65.506264 53.227909 -7.981359 -15.526901 -19.130859 7.363281 2.666016 51.063168 8.107644 2.471410 -64.472656 -25.400389 45.122768 2.000000 -2.000000 0.000000 -89.882813 -16.572266 -18.821142 -57.954060 -1.267017 -2.152398 -30.125662 35.103123 -78.088310 -2.000000 2.000000 0.000000 48.085934 -26.054689 16.230467 122.205910 -1.715450 -2.844094 -41.202641 -67.428314 29.508308 -17.334768 23.674019 40.254402 20.520397 -4.886918 -1.968352 2.884834 2.728877 -6.069997 -15.006450 -4.685313 -15.807405 11.018132 5.084189 0.934219 -1.714790 -6.269625 2.346045 
-4.864322 52.467049 9.579266 3.007812 9.111327 -65.419922 53.400799 -8.055862 -15.380906 -19.121094 7.529296 2.695313 51.063168 8.107644 2.471410 -64.746094 -24.833984 44.628910 2.000000 -2.000000 0.000000 -90.947266 -16.787109 -17.744141 -57.439220 -1.585803 -2.251143 -29.289122 35.076920 -77.276947 -2.000000 2.000000 0.000000 48.095703 -27.851564 15.966797 123.084763 -1.744698 -2.845790 -41.673931 -67.291420 29.179281 -16.269821 24.255844 39.940941 15.774920 -5.045507 -1.607160 -0.693524 3.678767 -7.596988 -14.915982 -6.050154 -16.025513 12.242834 5.096405 0.588477 -2.856621 -4.958366 3.598233 
-4.870016 52.333118 10.861937 3.730469 9.101462 -65.311195 53.762726 -8.311756 -15.251138 -18.945314 7.529296 2.724610 51.063168 8.107644 2.471410 -65.000000 -24.091795 44.072266 2.000000 -2.000000 0.000000 -91.455078 -17.031250 -16.884766 -56.370377 -1.312353 -2.091081 -29.180796 35.181072 -76.207108 -2.000000 2.000000 0.000000 48.906250 -29.091797 15.708142 123.611824 -1.755012 -2.836610 -43.014256 -67.055321 29.758417 -15.391043 24.577442 39.580135 8.534490 -5.248857 -0.961647 0.472089 4.250714 -8.384038 -15.048509 -7.187305 -17.321695 13.847091 5.018999 1.327208 -3.619120 -3.395547 4.583626 
-4.820153 52.175552 12.203104 4.433594 9.101563 -65.193764 54.100510 -8.383018 -15.112988 -18.935547 7.705078 2.763672 51.063168 8.107644 2.471410 -65.048828 -23.378904 43.251953 2.000000 -2.000000 0.000000 -92.333984 -17.558592 -15.898438 -55.314640 -1.300330 -2.052668 -29.112322 35.237591 -75.399353 -2.000000 2.000000 0.000000 49.658203 -29.902346 15.727554 123.787865 -1.764196 -2.846921 -43.970200 -67.147202 29.683426 -14.347013 24.554993 39.464657 -1.132294 -5.307298 -0.131463 4.713782 4.347221 -9.122755 -15.328773 -8.346312 -18.075472 14.730958 4.990991 1.251555 -4.269581 -1.668047 5.154514 
